<?xml version="1.0" encoding="utf-8"?>
<!--
Copyright © 2015 Steve Muller <steve.muller@outlook.com>
This file is subject to the license terms in the LICENSE file found in the top-level directory of
this distribution and at http://github.com/stevemuller04/lys/blob/master/LICENSE
-->
<!-- Generator: Adobe Illustrator 14.0.0, SVG Export Plug-In . SVG Version: 6.00 Build 43363)  -->
<!DOCTYPE svg PUBLIC "-//W3C//DTD SVG 1.1//EN" "http://www.w3.org/Graphics/SVG/1.1/DTD/svg11.dtd">
<svg version="1.1" xmlns="http://www.w3.org/2000/svg" xmlns:xlink="http://www.w3.org/1999/xlink" x="0px" y="0px" width="288px"
	 height="75.813px" viewBox="0 0 288 75.813" enable-background="new 0 0 288 75.813" xml:space="preserve">
<g id="Table">
	<path fill="#223145" d="M45,38.701l-9,36c3.625,2.5,9,0,9,0l9-36H45z"/>
	<path fill="#223145" d="M60.3,29.701l-6.3,25.2c2.538,1.75,6.3,0,6.3,0l6.3-25.2H60.3z"/>
	<path fill="#223145" d="M207,38.701l9,36c-3.625,2.5-9,0-9,0l-9-36H207z"/>
	<path fill="#223145" d="M191.701,29.701l6.299,25.2c-2.537,1.75-6.299,0-6.299,0l-6.301-25.2H191.701z"/>
	<path fill="#2D3E54" d="M0,38.701c0,0,0,9,9,9c99-18,279,0,279,0l-63-36H27L0,38.701z"/>
	<path fill="#3F536C" d="M27,2.701c72-9,234,9,234,9l27,36c0,0-189-27-288-9L27,2.701z"/>
</g>
<g id="Lights__x5B_Base_x5D_" display="none">
	<g display="inline">
		<polygon fill="#4FBA6F" points="247.482,41.918 244.928,37.561 238.773,37.561 241.172,41.918 		"/>
		<polygon fill="#4FBA6F" points="232.839,31.334 226.892,31.334 229.045,35.692 235.138,35.692 		"/>
		<polygon fill="#4FBA6F" points="243.843,35.692 241.333,31.334 235.387,31.334 237.752,35.692 		"/>
		<polygon fill="#4FBA6F" points="237.792,25.108 232.054,25.108 234.38,29.466 240.263,29.466 		"/>
		<polygon fill="#4FBA6F" points="256.494,41.918 253.727,37.561 247.571,37.561 250.185,41.918 		"/>
		<polygon fill="#4FBA6F" points="249.826,31.334 243.884,31.334 246.455,35.692 252.551,35.692 		"/>
		<path fill="#4FBA6F" d="M247.179,10.788h5.194c-1.645-0.169-3.501-0.358-5.559-0.564L247.179,10.788z"/>
		<polygon fill="#4FBA6F" points="259.064,17.014 264.536,17.014 261.338,12.657 256.01,12.657 		"/>
		<polygon fill="#4FBA6F" points="182.906,35.691 181.876,31.334 175.933,31.334 176.813,35.691 		"/>
		<polygon fill="#4FBA6F" points="274.519,41.918 271.32,37.561 265.162,37.561 268.211,41.918 		"/>
		<polygon fill="#4FBA6F" points="283.531,41.918 280.12,37.562 273.959,37.562 277.221,41.918 		"/>
		<polygon fill="#4FBA6F" points="226.434,35.692 224.343,31.334 218.4,31.334 220.342,35.692 		"/>
		<path fill="#4FBA6F" d="M227.336,37.561h-6.156l1.122,2.48c2.228,0.219,4.414,0.438,6.56,0.657L227.336,37.561z"/>
		<polygon fill="#4FBA6F" points="206.648,29.466 205.008,25.108 199.271,25.108 200.767,29.466 		"/>
		<polygon fill="#4FBA6F" points="198.244,29.465 196.812,25.108 191.075,25.108 192.364,29.465 		"/>
		<polygon fill="#4FBA6F" points="189.841,29.465 188.619,25.108 182.88,25.108 183.958,29.465 		"/>
		<polygon fill="#4FBA6F" points="191.612,35.692 190.369,31.334 184.425,31.334 185.52,35.692 		"/>
		<polygon fill="#4FBA6F" points="200.318,35.692 198.867,31.334 192.92,31.334 194.224,35.692 		"/>
		<polygon fill="#4FBA6F" points="209.022,35.692 207.357,31.334 201.412,31.334 202.928,35.692 		"/>
		<path fill="#4FBA6F" d="M201.997,10.788h5.272l-1.755-4.343c-0.061-0.005-0.121-0.01-0.182-0.015h-4.961L201.997,10.788z"/>
		<polygon fill="#4FBA6F" points="221.398,25.108 215.662,25.108 217.572,29.465 223.457,29.465 		"/>
		<polygon fill="#4FBA6F" points="217.729,35.691 215.85,31.334 209.904,31.334 211.634,35.691 		"/>
		<polygon fill="#4FBA6F" points="215.051,29.465 213.204,25.106 207.468,25.106 209.17,29.465 		"/>
		<polygon fill="#4FBA6F" points="265.506,41.918 262.523,37.561 256.365,37.561 259.198,41.918 		"/>
		<polygon fill="#4FBA6F" points="139.496,12.654 134.166,12.654 134.009,17.014 139.48,17.014 		"/>
		<polygon fill="#4FBA6F" points="147.821,29.465 147.638,25.106 141.9,25.106 141.94,29.465 		"/>
		<path fill="#4FBA6F" d="M139.524,1.933c-1.659-0.086-3.32-0.169-4.983-0.25l-0.096,2.878h5.074L139.524,1.933z"/>
		<polygon fill="#4FBA6F" points="139.516,6.43 134.383,6.43 134.232,10.788 139.503,10.788 		"/>
		<path fill="#4FBA6F" d="M141.694,4.559h5.073l-0.095-2.244c-1.665-0.093-3.334-0.183-5.006-0.271L141.694,4.559z"/>
		<polygon fill="#4FBA6F" points="139.472,18.883 133.941,18.883 133.778,23.242 139.452,23.242 		"/>
		<polygon fill="#4FBA6F" points="133.535,29.466 139.419,29.466 139.442,25.108 133.707,25.108 		"/>
		<polygon fill="#4FBA6F" points="132.182,6.43 127.049,6.43 126.704,10.788 131.973,10.788 		"/>
		<path fill="#4FBA6F" d="M132.409,1.581c-1.654-0.078-3.309-0.153-4.964-0.226l-0.249,3.206h5.074L132.409,1.581z"/>
		<polygon fill="#4FBA6F" points="131.57,18.882 126.038,18.882 125.67,23.238 131.345,23.238 		"/>
		<polygon fill="#4FBA6F" points="125.133,29.465 131.015,29.465 131.248,25.108 125.511,25.108 		"/>
		<polygon fill="#4FBA6F" points="131.88,12.654 126.551,12.654 126.193,17.014 131.664,17.014 		"/>
		<polygon fill="#4FBA6F" points="141.714,6.428 141.761,10.785 147.031,10.785 146.847,6.428 		"/>
		<polygon fill="#4FBA6F" points="155.113,17.014 154.728,12.654 149.397,12.654 149.642,17.014 		"/>
		<polygon fill="#4FBA6F" points="147.558,23.238 147.375,18.881 141.844,18.881 141.886,23.238 		"/>
		<path fill="#4FBA6F" d="M170.689,4.559h5.073l-0.09-0.409c-1.697-0.12-3.408-0.238-5.128-0.354L170.689,4.559z"/>
		<polygon fill="#4FBA6F" points="149.048,6.43 149.293,10.788 154.562,10.788 154.181,6.43 		"/>
		<path fill="#4FBA6F" d="M163.44,4.561h5.075l-0.161-0.914c-1.688-0.113-3.388-0.225-5.094-0.334L163.44,4.561z"/>
		<path fill="#4FBA6F" d="M156.192,4.559h5.072l-0.182-1.385c-1.68-0.106-3.367-0.211-5.061-0.313L156.192,4.559z"/>
		<polygon fill="#4FBA6F" points="147.294,17.012 147.109,12.654 141.78,12.654 141.825,17.012 		"/>
		<path fill="#4FBA6F" d="M177.937,4.561h3.47c-1.171-0.085-2.346-0.17-3.529-0.255L177.937,4.561z"/>
		<polygon fill="#4FBA6F" points="155.668,23.238 155.278,18.881 149.747,18.881 149.991,23.238 		"/>
		<path fill="#4FBA6F" d="M148.945,4.559h5.074l-0.159-1.829c-1.673-0.1-3.351-0.197-5.033-0.293L148.945,4.559z"/>
		<polygon fill="#4FBA6F" points="156.229,29.465 155.834,25.106 150.098,25.106 150.342,29.465 		"/>
		<polygon fill="#4FBA6F" points="248.665,29.465 245.986,25.108 240.249,25.108 242.785,29.465 		"/>
		<polygon fill="#4FBA6F" points="205.065,18.881 206.74,23.238 212.416,23.238 210.595,18.881 		"/>
		<polygon fill="#4FBA6F" points="220.523,23.238 218.499,18.882 212.968,18.882 214.85,23.238 		"/>
		<polygon fill="#4FBA6F" points="215.646,12.654 210.315,12.654 212.167,17.014 217.639,17.014 		"/>
		<polygon fill="#4FBA6F" points="223.263,12.654 217.933,12.654 219.984,17.014 225.453,17.014 		"/>
		<path fill="#4FBA6F" d="M237.39,10.788l-0.924-1.577c-1.76-0.168-3.598-0.342-5.51-0.521l1.161,2.098H237.39z"/>
		<path fill="#4FBA6F" d="M229.858,10.788l-1.25-2.315c-1.762-0.163-3.579-0.329-5.45-0.498l1.43,2.813H229.858z"/>
		<path fill="#4FBA6F" d="M244.916,10.788l-0.507-0.804c-1.74-0.172-3.6-0.354-5.569-0.545l0.808,1.349H244.916z"/>
		<polygon fill="#4FBA6F" points="228.631,23.238 226.4,18.882 220.87,18.882 222.958,23.238 		"/>
		<polygon fill="#4FBA6F" points="231.857,29.465 229.596,25.108 223.858,25.108 225.977,29.465 		"/>
		<polygon fill="#4FBA6F" points="234.307,18.883 228.773,18.883 231.066,23.242 236.74,23.242 		"/>
		<polygon fill="#4FBA6F" points="241.086,17.014 238.491,12.654 233.16,12.654 235.615,17.014 		"/>
		<polygon fill="#4FBA6F" points="225.548,12.654 227.801,17.014 233.271,17.014 230.877,12.654 		"/>
		<polygon fill="#4FBA6F" points="171.883,23.238 171.084,18.882 165.553,18.882 166.207,23.238 		"/>
		<polygon fill="#4FBA6F" points="164.629,29.465 164.031,25.106 158.293,25.106 158.748,29.465 		"/>
		<polygon fill="#4FBA6F" points="169.622,10.788 168.844,6.43 163.712,6.43 164.353,10.788 		"/>
		<polygon fill="#4FBA6F" points="163.774,23.238 163.181,18.881 157.648,18.881 158.098,23.238 		"/>
		<path fill="#4FBA6F" d="M222.328,10.788l-1.496-3.022c-1.756-0.157-3.554-0.315-5.393-0.476l1.619,3.498H222.328z"/>
		<polygon fill="#4FBA6F" points="156.381,6.43 156.819,10.788 162.093,10.788 161.513,6.43 		"/>
		<polygon fill="#4FBA6F" points="162.931,17.014 162.341,12.654 157.012,12.654 157.458,17.014 		"/>
		<polygon fill="#4FBA6F" points="173.036,29.465 172.225,25.108 166.487,25.108 167.152,29.465 		"/>
		<polygon fill="#4FBA6F" points="178.562,17.014 177.573,12.654 172.242,12.654 173.09,17.014 		"/>
		<polygon fill="#4FBA6F" points="244.847,23.238 242.211,18.882 236.676,18.882 239.172,23.238 		"/>
		<polygon fill="#4FBA6F" points="170.746,17.014 169.955,12.654 164.627,12.654 165.274,17.014 		"/>
		<polygon fill="#4FBA6F" points="177.149,10.788 176.178,6.43 171.045,6.43 171.88,10.788 		"/>
		<polygon fill="#4FBA6F" points="179.989,23.238 178.984,18.881 173.455,18.881 174.313,23.238 		"/>
		<path fill="#4FBA6F" d="M209.529,10.788h5.27l-1.664-3.697c-1.748-0.151-3.528-0.303-5.342-0.455L209.529,10.788z"/>
		<polygon fill="#4FBA6F" points="193.043,6.43 194.472,10.788 199.743,10.788 198.175,6.43 		"/>
		<polygon fill="#4FBA6F" points="195.087,12.654 196.539,17.014 202.009,17.014 200.417,12.654 		"/>
		<polygon fill="#4FBA6F" points="204.353,17.014 209.824,17.014 208.029,12.654 202.701,12.654 		"/>
		<polygon fill="#4FBA6F" points="197.161,18.883 198.638,23.242 204.312,23.242 202.694,18.883 		"/>
		<polygon fill="#4FBA6F" points="189.258,18.882 190.526,23.238 196.203,23.238 194.792,18.882 		"/>
		<polygon fill="#4FBA6F" points="181.437,29.465 180.422,25.106 174.684,25.106 175.557,29.465 		"/>
		<polygon fill="#4FBA6F" points="187.472,12.654 188.721,17.014 194.193,17.014 192.802,12.654 		"/>
		<polygon fill="#4FBA6F" points="178.377,6.43 179.41,10.788 184.682,10.788 183.512,6.43 		"/>
		<polygon fill="#4FBA6F" points="185.711,6.43 186.939,10.788 192.211,10.788 190.842,6.43 		"/>
		<polygon fill="#4FBA6F" points="181.355,18.882 182.421,23.238 188.096,23.238 186.888,18.882 		"/>
		<polygon fill="#4FBA6F" points="257.071,29.466 254.184,25.108 248.443,25.108 251.188,29.466 		"/>
		<polygon fill="#4FBA6F" points="265.475,29.466 262.378,25.108 256.638,25.108 259.593,29.466 		"/>
		<polygon fill="#4FBA6F" points="269.962,35.692 266.813,31.334 260.865,31.334 263.868,35.692 		"/>
		<polygon fill="#4FBA6F" points="261.257,35.692 258.322,31.334 252.374,31.334 255.161,35.692 		"/>
		<path fill="#4FBA6F" d="M119.948,4.561h5.074l0.299-3.297c-1.65-0.07-3.299-0.137-4.947-0.202L119.948,4.561z"/>
		<polygon fill="#4FBA6F" points="240.775,12.654 243.431,17.014 248.904,17.014 246.106,12.654 		"/>
		<polygon fill="#4FBA6F" points="252.954,23.242 250.112,18.883 244.581,18.883 247.279,23.242 		"/>
		<polygon fill="#4FBA6F" points="248.389,12.654 251.248,17.014 256.717,17.014 253.722,12.654 		"/>
		<polygon fill="#4FBA6F" points="252.481,18.883 255.387,23.242 261.061,23.242 258.016,18.883 		"/>
		<polygon fill="#4FBA6F" points="278.667,35.692 275.308,31.334 269.362,31.334 272.574,35.692 		"/>
		<polygon fill="#4FBA6F" points="260.387,18.883 263.496,23.242 269.171,23.242 265.917,18.883 		"/>
		<polygon fill="#4FBA6F" points="264.836,25.108 267.996,29.467 273.88,29.467 270.574,25.108 		"/>
		<polygon fill="#4FBA6F" points="179.855,12.654 180.905,17.014 186.376,17.014 185.185,12.654 		"/>
		<polygon fill="#4FBA6F" points="124.267,12.654 118.936,12.654 118.377,17.014 123.849,17.014 		"/>
		<polygon fill="#4FBA6F" points="124.851,6.43 119.717,6.43 119.173,10.788 124.444,10.788 		"/>
		<polygon fill="#4FBA6F" points="123.667,18.882 118.136,18.882 117.563,23.238 123.238,23.238 		"/>
		<polygon fill="#4FBA6F" points="116.653,12.654 111.322,12.654 110.562,17.014 116.033,17.014 		"/>
		<polygon fill="#4FBA6F" points="123.051,25.108 117.315,25.108 116.729,29.465 122.61,29.465 		"/>
		<polygon fill="#4FBA6F" points="117.518,6.43 112.384,6.43 111.643,10.788 116.915,10.788 		"/>
		<path fill="#4FBA6F" d="M112.7,4.559h5.073l0.484-3.578c-1.646-0.062-3.291-0.121-4.933-0.176L112.7,4.559z"/>
		<path fill="#4FBA6F" d="M83.707,4.559h5.072l1.348-4.304c-1.649-0.021-3.291-0.038-4.922-0.05L83.707,4.559z"/>
		<path fill="#4FBA6F" d="M105.45,4.561h5.075l0.687-3.825c-1.645-0.053-3.286-0.102-4.923-0.148L105.45,4.561z"/>
		<path fill="#4FBA6F" d="M57.021,31.334L56.176,33.1c2.022-0.082,4.057-0.155,6.102-0.219l0.687-1.547H57.021z"/>
		<path fill="#4FBA6F" d="M90.954,4.559h5.075l1.124-4.189c-1.646-0.032-3.285-0.061-4.917-0.085L90.954,4.559z"/>
		<path fill="#4FBA6F" d="M98.203,4.559h5.074l0.903-4.027c-1.645-0.043-3.285-0.083-4.918-0.118L98.203,4.559z"/>
		<polygon fill="#4FBA6F" points="110.186,6.43 105.053,6.43 104.113,10.788 109.384,10.788 		"/>
		<path fill="#4FBA6F" d="M82.5,31.334l-0.396,1.193c1.991-0.011,3.987-0.015,5.989-0.012l0.352-1.182H82.5z"/>
		<path fill="#4FBA6F" d="M96.938,31.334h-5.944l-0.337,1.189c1.987,0.009,3.979,0.023,5.974,0.045L96.938,31.334z"/>
		<polygon fill="#4FBA6F" points="94.427,18.881 93.242,23.238 98.916,23.238 99.958,18.881 		"/>
		<path fill="#4FBA6F" d="M65.513,31.334l-0.631,1.471c2.008-0.056,4.025-0.103,6.051-0.142l0.525-1.329H65.513z"/>
		<path fill="#4FBA6F" d="M74.006,31.331l-0.489,1.287c1.998-0.032,4.003-0.056,6.016-0.073l0.421-1.214H74.006z"/>
		<polygon fill="#4FBA6F" points="114.855,25.106 109.119,25.106 108.326,29.465 114.208,29.465 		"/>
		<path fill="#4FBA6F" d="M69.208,4.559h5.074l1.751-4.358h-2.458c-0.833,0.006-1.663,0.013-2.489,0.022L69.208,4.559z"/>
		<polygon fill="#4FBA6F" points="115.765,18.881 110.232,18.881 109.456,23.238 115.131,23.238 		"/>
		<polygon fill="#4FBA6F" points="107.861,18.882 102.329,18.882 101.35,23.238 107.023,23.238 		"/>
		<polygon fill="#4FBA6F" points="106.661,25.108 100.923,25.108 99.921,29.465 105.805,29.465 		"/>
		<polygon fill="#4FBA6F" points="109.036,12.654 103.707,12.654 102.746,17.014 108.217,17.014 		"/>
		<polygon fill="#4FBA6F" points="76.456,4.561 81.531,4.561 83.089,0.201 78.15,0.201 		"/>
		<path fill="#4FBA6F" d="M218.54,37.561h-6.157l0.64,1.589c2.194,0.205,4.354,0.411,6.482,0.618L218.54,37.561z"/>
		<path fill="#4FBA6F" d="M209.742,37.561h-6.157l0.267,0.755c2.162,0.191,4.299,0.384,6.407,0.578L209.742,37.561z"/>
		<path fill="#4FBA6F" d="M174.201,35.692l-0.818-4.358h-5.947l0.648,4.185c0.848,0.057,1.693,0.115,2.537,0.173H174.201z"/>
		<path fill="#4FBA6F" d="M147.899,31.331h-5.943l0.022,2.653c2.021,0.101,4.037,0.205,6.046,0.314L147.899,31.331z"/>
		<path fill="#4FBA6F" d="M156.396,31.334h-5.945l0.176,3.107c2.035,0.114,4.062,0.231,6.081,0.353L156.396,31.334z"/>
		<path fill="#4FBA6F" d="M164.889,31.334h-5.944l0.38,3.619c2.051,0.127,4.093,0.257,6.124,0.391L164.889,31.334z"/>
		<path fill="#4FBA6F" d="M61.96,4.559h5.074l1.923-4.311C67.281,0.271,65.62,0.3,63.976,0.336L61.96,4.559z"/>
		<path fill="#4FBA6F" d="M229.977,37.561l1.718,3.427c2.269,0.235,4.486,0.468,6.65,0.699l-2.212-4.126H229.977z"/>
		<path fill="#4FBA6F" d="M275.902,43.789h-6.376l1.163,1.637c2.646,0.331,5.024,0.634,7.107,0.904L275.902,43.789z"/>
		<path fill="#4FBA6F" d="M286.053,45.104l-1.047-1.315h-6.372l2.237,2.943c4.606,0.608,7.129,0.969,7.129,0.969L286.053,45.104z"/>
		<path fill="#4FBA6F" d="M257.689,43.787h-0.567c0.206,0.024,0.409,0.048,0.614,0.072L257.689,43.787z"/>
		<path fill="#4FBA6F" d="M266.798,43.789h-6.375l0.277,0.42c2.472,0.294,4.799,0.576,6.976,0.844L266.798,43.789z"/>
		<path fill="#4FBA6F" d="M200.944,37.561h-5.871c2.035,0.17,4.05,0.342,6.046,0.516L200.944,37.561z"/>
		<path fill="#4FBA6F" d="M25.72,4.558h5.073l1.65-2.468c-1.858,0.188-3.667,0.39-5.422,0.609L25.72,4.558z"/>
		<path fill="#4FBA6F" d="M32.967,4.559h5.073l1.953-3.13C38.2,1.563,36.446,1.71,34.729,1.869L32.967,4.559z"/>
		<path fill="#4FBA6F" d="M40.215,4.559h5.075l2.09-3.607c-1.749,0.096-3.466,0.202-5.156,0.318L40.215,4.559z"/>
		<path fill="#4FBA6F" d="M54.712,4.559h5.074l2.047-4.173c-1.693,0.043-3.366,0.093-5.021,0.15L54.712,4.559z"/>
		<path fill="#4FBA6F" d="M47.463,4.559h5.074l2.111-3.944c-1.715,0.066-3.41,0.14-5.079,0.223L47.463,4.559z"/>
		<path fill="#4FBA6F" d="M130.915,31.334h-5.946l-0.17,1.908c2.001,0.073,4.001,0.151,5.998,0.233L130.915,31.334z"/>
		<path fill="#4FBA6F" d="M139.407,31.334h-5.945l-0.091,2.25c2.01,0.087,4.017,0.178,6.02,0.274L139.407,31.334z"/>
		<path fill="#4FBA6F" d="M122.42,31.334h-5.945l-0.224,1.627c1.995,0.058,3.988,0.122,5.981,0.19L122.42,31.334z"/>
		<path fill="#4FBA6F" d="M6.792,37.559H1.256L0.42,38.627C2.506,38.251,4.63,37.895,6.792,37.559z"/>
		<path fill="#4FBA6F" d="M105.433,31.334h-5.945l-0.296,1.263c1.987,0.026,3.978,0.059,5.969,0.096L105.433,31.334z"/>
		<path fill="#4FBA6F" d="M113.927,31.334h-5.946l-0.263,1.411c1.99,0.043,3.98,0.091,5.972,0.145L113.927,31.334z"/>
		<polygon fill="#4FBA6F" points="68.348,18.881 62.816,18.881 60.813,23.238 66.488,23.238 		"/>
		<polygon fill="#4FBA6F" points="20.278,23.238 25.953,23.238 28.835,18.881 23.304,18.881 		"/>
		<polygon fill="#4FBA6F" points="32.902,25.106 27.165,25.106 24.288,29.465 30.171,29.465 		"/>
		<path fill="#4FBA6F" d="M28.991,31.331h-5.945l-2.928,4.359h0.725c1.897-0.213,3.814-0.415,5.753-0.604L28.991,31.331z"/>
		<polygon fill="#4FBA6F" points="24.588,17.012 30.059,17.012 32.888,12.654 27.557,12.654 		"/>
		<polygon fill="#4FBA6F" points="40.22,17.014 45.69,17.014 48.117,12.654 42.787,12.654 		"/>
		<polygon fill="#4FBA6F" points="32.404,17.012 37.875,17.012 40.502,12.654 35.173,12.654 		"/>
		<path fill="#4FBA6F" d="M45.979,31.331h-5.945l-1.582,2.753c2.069-0.148,4.157-0.285,6.261-0.411L45.979,31.331z"/>
		<path fill="#4FBA6F" d="M54.47,31.334h-5.945l-1.15,2.186c2.042-0.113,4.1-0.215,6.171-0.308L54.47,31.334z"/>
		<polygon fill="#4FBA6F" points="65.684,25.106 59.946,25.106 57.904,29.465 63.785,29.465 		"/>
		<polygon fill="#4FBA6F" points="94.931,17.014 100.401,17.014 101.423,12.654 96.093,12.654 		"/>
		<polygon fill="#4FBA6F" points="51.75,25.106 49.5,29.465 55.382,29.465 57.488,25.106 		"/>
		<polygon fill="#4FBA6F" points="60.446,18.881 54.914,18.881 52.707,23.238 58.381,23.238 		"/>
		<polygon fill="#4FBA6F" points="102.853,6.43 97.72,6.43 96.583,10.788 101.854,10.788 		"/>
		<polygon fill="#4FBA6F" points="24.706,25.106 18.97,25.106 15.885,29.465 21.768,29.465 		"/>
		<polygon fill="#4FBA6F" points="11.412,35.69 17.506,35.69 20.497,31.331 14.552,31.331 		"/>
		<polygon fill="#4FBA6F" points="87.114,17.014 92.586,17.014 93.807,12.654 88.477,12.654 		"/>
		<polygon fill="#4FBA6F" points="89.055,10.788 94.325,10.788 95.521,6.43 90.388,6.43 		"/>
		<polygon fill="#4FBA6F" points="73.878,25.108 68.141,25.108 66.308,29.465 72.189,29.465 		"/>
		<polygon fill="#4FBA6F" points="49.292,25.106 43.555,25.106 41.096,29.465 46.979,29.465 		"/>
		<polygon fill="#4FBA6F" points="52.543,18.881 47.011,18.881 44.599,23.238 50.274,23.238 		"/>
		<polygon fill="#4FBA6F" points="38.576,29.465 41.096,25.106 35.359,25.106 32.693,29.465 		"/>
		<polygon fill="#4FBA6F" points="55.732,12.654 50.402,12.654 48.037,17.012 53.507,17.012 		"/>
		<polygon fill="#4FBA6F" points="44.641,18.881 39.109,18.881 36.492,23.238 42.167,23.238 		"/>
		<polygon fill="#4FBA6F" points="31.206,18.881 28.385,23.238 34.06,23.238 36.738,18.881 		"/>
		<path fill="#4FBA6F" d="M35.744,34.286l1.74-2.952h-5.945l-2.176,3.49C31.468,34.632,33.595,34.452,35.744,34.286z"/>
		<polygon fill="#4FBA6F" points="43.876,10.788 49.146,10.788 51.526,6.43 46.394,6.43 		"/>
		<polygon fill="#4FBA6F" points="28.819,10.785 34.089,10.785 36.863,6.428 31.73,6.428 		"/>
		<polygon fill="#4FBA6F" points="36.348,10.785 41.619,10.785 44.194,6.428 39.063,6.428 		"/>
		<polygon fill="#4FBA6F" points="55.851,17.014 61.322,17.014 63.348,12.654 58.017,12.654 		"/>
		<polygon fill="#4FBA6F" points="76.251,18.882 70.719,18.882 68.92,23.238 74.595,23.238 		"/>
		<polygon fill="#4FBA6F" points="2.708,35.69 8.799,35.69 12.005,31.331 6.06,31.331 		"/>
		<polygon fill="#4FBA6F" points="58.935,10.788 64.207,10.788 66.191,6.43 61.059,6.43 		"/>
		<polygon fill="#4FBA6F" points="7.483,29.463 13.366,29.463 16.51,25.106 10.773,25.106 		"/>
		<polygon fill="#4FBA6F" points="16.773,17.012 22.244,17.012 25.274,12.652 19.944,12.652 		"/>
		<polygon fill="#4FBA6F" points="21.288,10.785 26.56,10.785 29.531,6.426 24.398,6.426 		"/>
		<polygon fill="#4FBA6F" points="12.172,23.237 17.846,23.237 20.934,18.881 15.401,18.881 		"/>
		<polygon fill="#4FBA6F" points="51.407,10.785 56.678,10.785 58.86,6.428 53.727,6.428 		"/>
		<polygon fill="#4FBA6F" points="92.057,18.881 86.525,18.881 85.134,23.238 90.809,23.238 		"/>
		<polygon fill="#4FBA6F" points="98.464,25.106 92.728,25.106 91.519,29.465 97.4,29.465 		"/>
		<polygon fill="#4FBA6F" points="63.667,17.014 69.138,17.014 70.962,12.654 65.631,12.654 		"/>
		<polygon fill="#4FBA6F" points="84.154,18.881 78.623,18.881 77.028,23.238 82.702,23.238 		"/>
		<polygon fill="#4FBA6F" points="82.074,25.106 76.338,25.106 74.711,29.465 80.593,29.465 		"/>
		<polygon fill="#4FBA6F" points="90.27,25.106 84.533,25.106 83.116,29.465 88.996,29.465 		"/>
		<polygon fill="#4FBA6F" points="66.465,10.788 71.736,10.788 73.523,6.43 68.391,6.43 		"/>
		<polygon fill="#4FBA6F" points="71.483,17.014 76.953,17.014 78.577,12.654 73.247,12.654 		"/>
		<polygon fill="#4FBA6F" points="73.995,10.788 79.265,10.788 80.856,6.43 75.724,6.43 		"/>
		<polygon fill="#4FBA6F" points="81.525,10.785 86.796,10.785 88.188,6.428 83.056,6.428 		"/>
		<polygon fill="#4FBA6F" points="79.299,17.012 84.769,17.012 86.192,12.654 80.861,12.654 		"/>
	</g>
</g>
<g id="Red_Lights" display="none">
	<polygon display="inline" fill="#E64C3C" points="237.792,25.108 232.054,25.108 234.38,29.466 240.263,29.466 	"/>
	<path display="inline" fill="#E64C3C" d="M227.336,37.561h-6.156l1.122,2.48c2.228,0.219,4.414,0.438,6.56,0.657L227.336,37.561z"
		/>
	<polygon display="inline" fill="#E64C3C" points="191.612,35.692 190.369,31.334 184.425,31.334 185.52,35.692 	"/>
	<polygon display="inline" fill="#E64C3C" points="209.022,35.692 207.357,31.334 201.412,31.334 202.928,35.692 	"/>
	<polygon display="inline" fill="#E64C3C" points="221.398,25.108 215.662,25.108 217.572,29.465 223.457,29.465 	"/>
	<polygon display="inline" fill="#E64C3C" points="265.506,41.918 262.523,37.561 256.365,37.561 259.198,41.918 	"/>
	<polygon display="inline" fill="#E64C3C" points="147.821,29.465 147.638,25.106 141.9,25.106 141.94,29.465 	"/>
	<path display="inline" fill="#E64C3C" d="M141.694,4.559h5.073l-0.095-2.244c-1.665-0.093-3.334-0.183-5.006-0.271L141.694,4.559z"
		/>
	<polygon display="inline" fill="#E64C3C" points="139.472,18.883 133.941,18.883 133.778,23.242 139.452,23.242 	"/>
	<polygon display="inline" fill="#E64C3C" points="155.113,17.014 154.728,12.654 149.397,12.654 149.642,17.014 	"/>
	<path display="inline" fill="#E64C3C" d="M156.192,4.559h5.072l-0.182-1.385c-1.68-0.106-3.367-0.211-5.061-0.313L156.192,4.559z"
		/>
	<path display="inline" fill="#E64C3C" d="M244.916,10.788l-0.507-0.804c-1.74-0.172-3.6-0.354-5.569-0.545l0.808,1.349H244.916z"/>
	<polygon display="inline" fill="#E64C3C" points="164.629,29.465 164.031,25.106 158.293,25.106 158.748,29.465 	"/>
	<polygon display="inline" fill="#E64C3C" points="170.746,17.014 169.955,12.654 164.627,12.654 165.274,17.014 	"/>
	<polygon display="inline" fill="#E64C3C" points="177.149,10.788 176.178,6.43 171.045,6.43 171.88,10.788 	"/>
	<polygon display="inline" fill="#E64C3C" points="179.989,23.238 178.984,18.881 173.455,18.881 174.313,23.238 	"/>
	<polygon display="inline" fill="#E64C3C" points="197.161,18.883 198.638,23.242 204.312,23.242 202.694,18.883 	"/>
	<polygon display="inline" fill="#E64C3C" points="185.711,6.43 186.939,10.788 192.211,10.788 190.842,6.43 	"/>
	<polygon display="inline" fill="#E64C3C" points="257.071,29.466 254.184,25.108 248.443,25.108 251.188,29.466 	"/>
	<polygon display="inline" fill="#E64C3C" points="240.775,12.654 243.431,17.014 248.904,17.014 246.106,12.654 	"/>
	<polygon display="inline" fill="#E64C3C" points="252.481,18.883 255.387,23.242 261.061,23.242 258.016,18.883 	"/>
	<polygon display="inline" fill="#E64C3C" points="124.851,6.43 119.717,6.43 119.173,10.788 124.444,10.788 	"/>
	<polygon display="inline" fill="#E64C3C" points="123.051,25.108 117.315,25.108 116.729,29.465 122.61,29.465 	"/>
	<path display="inline" fill="#E64C3C" d="M112.7,4.559h5.073l0.484-3.578c-1.646-0.062-3.291-0.121-4.933-0.176L112.7,4.559z"/>
	<path display="inline" fill="#E64C3C" d="M57.021,31.334L56.176,33.1c2.022-0.082,4.057-0.155,6.102-0.219l0.687-1.547H57.021z"/>
	<path display="inline" fill="#E64C3C" d="M98.203,4.559h5.074l0.903-4.027c-1.645-0.043-3.285-0.083-4.918-0.118L98.203,4.559z"/>
	<polygon display="inline" fill="#E64C3C" points="109.036,12.654 103.707,12.654 102.746,17.014 108.217,17.014 	"/>
	<polygon display="inline" fill="#E64C3C" points="76.456,4.561 81.531,4.561 83.089,0.201 78.15,0.201 	"/>
	<path display="inline" fill="#E64C3C" d="M174.201,35.692l-0.818-4.358h-5.947l0.648,4.185c0.848,0.057,1.693,0.115,2.537,0.173
		H174.201z"/>
	<path display="inline" fill="#E64C3C" d="M156.396,31.334h-5.945l0.176,3.107c2.035,0.114,4.062,0.231,6.081,0.353L156.396,31.334z
		"/>
	<path display="inline" fill="#E64C3C" d="M257.689,43.787h-0.567c0.206,0.024,0.409,0.048,0.614,0.072L257.689,43.787z"/>
	<path display="inline" fill="#E64C3C" d="M40.215,4.559h5.075l2.09-3.607c-1.749,0.096-3.466,0.202-5.156,0.318L40.215,4.559z"/>
	<polygon display="inline" fill="#E64C3C" points="68.348,18.881 62.816,18.881 60.813,23.238 66.488,23.238 	"/>
	<polygon display="inline" fill="#E64C3C" points="32.902,25.106 27.165,25.106 24.288,29.465 30.171,29.465 	"/>
	<polygon display="inline" fill="#E64C3C" points="89.055,10.788 94.325,10.788 95.521,6.43 90.388,6.43 	"/>
	<polygon display="inline" fill="#E64C3C" points="49.292,25.106 43.555,25.106 41.096,29.465 46.979,29.465 	"/>
	<polygon display="inline" fill="#E64C3C" points="44.641,18.881 39.109,18.881 36.492,23.238 42.167,23.238 	"/>
	<polygon display="inline" fill="#E64C3C" points="36.348,10.785 41.619,10.785 44.194,6.428 39.063,6.428 	"/>
	<polygon display="inline" fill="#E64C3C" points="2.708,35.69 8.799,35.69 12.005,31.331 6.06,31.331 	"/>
	<polygon display="inline" fill="#E64C3C" points="58.935,10.788 64.207,10.788 66.191,6.43 61.059,6.43 	"/>
	<polygon display="inline" fill="#E64C3C" points="21.288,10.785 26.56,10.785 29.531,6.426 24.398,6.426 	"/>
	<polygon display="inline" fill="#E64C3C" points="92.057,18.881 86.525,18.881 85.134,23.238 90.809,23.238 	"/>
	<polygon display="inline" fill="#E64C3C" points="98.464,25.106 92.728,25.106 91.519,29.465 97.4,29.465 	"/>
	<polygon display="inline" fill="#E64C3C" points="79.299,17.012 84.769,17.012 86.192,12.654 80.861,12.654 	"/>
</g>
<g id="Green_Lights">
	<polygon fill="#4FBA6F" points="232.839,31.334 226.892,31.334 229.045,35.692 235.138,35.692 	"/>
	<polygon fill="#4FBA6F" points="256.494,41.918 253.727,37.561 247.571,37.561 250.185,41.918 	"/>
	<polygon fill="#4FBA6F" points="283.531,41.918 280.12,37.562 273.959,37.562 277.221,41.918 	"/>
	<polygon fill="#4FBA6F" points="226.434,35.692 224.343,31.334 218.4,31.334 220.342,35.692 	"/>
	<polygon fill="#4FBA6F" points="200.318,35.692 198.867,31.334 192.92,31.334 194.224,35.692 	"/>
	<path fill="#4FBA6F" d="M201.997,10.788h5.272l-1.755-4.343c-0.061-0.005-0.121-0.01-0.182-0.015h-4.961L201.997,10.788z"/>
	<polygon fill="#4FBA6F" points="217.729,35.691 215.85,31.334 209.904,31.334 211.634,35.691 	"/>
	<polygon fill="#4FBA6F" points="133.535,29.466 139.419,29.466 139.442,25.108 133.707,25.108 	"/>
	<path fill="#4FBA6F" d="M132.409,1.581c-1.654-0.078-3.309-0.153-4.964-0.226l-0.249,3.206h5.074L132.409,1.581z"/>
	<polygon fill="#4FBA6F" points="131.88,12.654 126.551,12.654 126.193,17.014 131.664,17.014 	"/>
	<polygon fill="#4FBA6F" points="141.714,6.428 141.761,10.785 147.031,10.785 146.847,6.428 	"/>
	<polygon fill="#4FBA6F" points="147.294,17.012 147.109,12.654 141.78,12.654 141.825,17.012 	"/>
	<polygon fill="#4FBA6F" points="156.229,29.465 155.834,25.106 150.098,25.106 150.342,29.465 	"/>
	<polygon fill="#4FBA6F" points="248.665,29.465 245.986,25.108 240.249,25.108 242.785,29.465 	"/>
	<polygon fill="#4FBA6F" points="220.523,23.238 218.499,18.882 212.968,18.882 214.85,23.238 	"/>
	<polygon fill="#4FBA6F" points="234.307,18.883 228.773,18.883 231.066,23.242 236.74,23.242 	"/>
	<polygon fill="#4FBA6F" points="241.086,17.014 238.491,12.654 233.16,12.654 235.615,17.014 	"/>
	<polygon fill="#4FBA6F" points="171.883,23.238 171.084,18.882 165.553,18.882 166.207,23.238 	"/>
	<polygon fill="#4FBA6F" points="169.622,10.788 168.844,6.43 163.712,6.43 164.353,10.788 	"/>
	<path fill="#4FBA6F" d="M222.328,10.788l-1.496-3.022c-1.756-0.157-3.554-0.315-5.393-0.476l1.619,3.498H222.328z"/>
	<polygon fill="#4FBA6F" points="162.931,17.014 162.341,12.654 157.012,12.654 157.458,17.014 	"/>
	<polygon fill="#4FBA6F" points="204.353,17.014 209.824,17.014 208.029,12.654 202.701,12.654 	"/>
	<polygon fill="#4FBA6F" points="189.258,18.882 190.526,23.238 196.203,23.238 194.792,18.882 	"/>
	<polygon fill="#4FBA6F" points="181.437,29.465 180.422,25.106 174.684,25.106 175.557,29.465 	"/>
	<polygon fill="#4FBA6F" points="178.377,6.43 179.41,10.788 184.682,10.788 183.512,6.43 	"/>
	<polygon fill="#4FBA6F" points="181.355,18.882 182.421,23.238 188.096,23.238 186.888,18.882 	"/>
	<polygon fill="#4FBA6F" points="269.962,35.692 266.813,31.334 260.865,31.334 263.868,35.692 	"/>
	<polygon fill="#4FBA6F" points="248.389,12.654 251.248,17.014 256.717,17.014 253.722,12.654 	"/>
	<polygon fill="#4FBA6F" points="260.387,18.883 263.496,23.242 269.171,23.242 265.917,18.883 	"/>
	<polygon fill="#4FBA6F" points="123.667,18.882 118.136,18.882 117.563,23.238 123.238,23.238 	"/>
	<polygon fill="#4FBA6F" points="116.653,12.654 111.322,12.654 110.562,17.014 116.033,17.014 	"/>
	<path fill="#4FBA6F" d="M90.954,4.559h5.075l1.124-4.189c-1.646-0.032-3.285-0.061-4.917-0.085L90.954,4.559z"/>
	<polygon fill="#4FBA6F" points="110.186,6.43 105.053,6.43 104.113,10.788 109.384,10.788 	"/>
	<path fill="#4FBA6F" d="M65.513,31.334l-0.631,1.471c2.008-0.056,4.025-0.103,6.051-0.142l0.525-1.329H65.513z"/>
	<path fill="#4FBA6F" d="M74.006,31.331l-0.489,1.287c1.998-0.032,4.003-0.056,6.016-0.073l0.421-1.214H74.006z"/>
	<polygon fill="#4FBA6F" points="114.855,25.106 109.119,25.106 108.326,29.465 114.208,29.465 	"/>
	<path fill="#4FBA6F" d="M69.208,4.559h5.074l1.751-4.358h-2.458c-0.833,0.006-1.663,0.013-2.489,0.022L69.208,4.559z"/>
	<path fill="#4FBA6F" d="M218.54,37.561h-6.157l0.64,1.589c2.194,0.205,4.354,0.411,6.482,0.618L218.54,37.561z"/>
	<path fill="#4FBA6F" d="M164.889,31.334h-5.944l0.38,3.619c2.051,0.127,4.093,0.257,6.124,0.391L164.889,31.334z"/>
	<path fill="#4FBA6F" d="M286.053,45.104l-1.047-1.315h-6.372l2.237,2.943c4.606,0.608,7.129,0.969,7.129,0.969L286.053,45.104z"/>
	<path fill="#4FBA6F" d="M32.967,4.559h5.073l1.953-3.13C38.2,1.563,36.446,1.71,34.729,1.869L32.967,4.559z"/>
	<path fill="#4FBA6F" d="M54.712,4.559h5.074l2.047-4.173c-1.693,0.043-3.366,0.093-5.021,0.15L54.712,4.559z"/>
	<path fill="#4FBA6F" d="M122.42,31.334h-5.945l-0.224,1.627c1.995,0.058,3.988,0.122,5.981,0.19L122.42,31.334z"/>
	<path fill="#4FBA6F" d="M113.927,31.334h-5.946l-0.263,1.411c1.99,0.043,3.98,0.091,5.972,0.145L113.927,31.334z"/>
	<polygon fill="#4FBA6F" points="24.588,17.012 30.059,17.012 32.888,12.654 27.557,12.654 	"/>
	<path fill="#4FBA6F" d="M54.47,31.334h-5.945l-1.15,2.186c2.042-0.113,4.1-0.215,6.171-0.308L54.47,31.334z"/>
	<polygon fill="#4FBA6F" points="94.931,17.014 100.401,17.014 101.423,12.654 96.093,12.654 	"/>
	<polygon fill="#4FBA6F" points="60.446,18.881 54.914,18.881 52.707,23.238 58.381,23.238 	"/>
	<polygon fill="#4FBA6F" points="11.412,35.69 17.506,35.69 20.497,31.331 14.552,31.331 	"/>
	<polygon fill="#4FBA6F" points="87.114,17.014 92.586,17.014 93.807,12.654 88.477,12.654 	"/>
	<polygon fill="#4FBA6F" points="38.576,29.465 41.096,25.106 35.359,25.106 32.693,29.465 	"/>
	<polygon fill="#4FBA6F" points="31.206,18.881 28.385,23.238 34.06,23.238 36.738,18.881 	"/>
	<polygon fill="#4FBA6F" points="43.876,10.788 49.146,10.788 51.526,6.43 46.394,6.43 	"/>
	<polygon fill="#4FBA6F" points="55.851,17.014 61.322,17.014 63.348,12.654 58.017,12.654 	"/>
	<polygon fill="#4FBA6F" points="76.251,18.882 70.719,18.882 68.92,23.238 74.595,23.238 	"/>
	<polygon fill="#4FBA6F" points="7.483,29.463 13.366,29.463 16.51,25.106 10.773,25.106 	"/>
	<polygon fill="#4FBA6F" points="90.27,25.106 84.533,25.106 83.116,29.465 88.996,29.465 	"/>
	<polygon fill="#4FBA6F" points="71.483,17.014 76.953,17.014 78.577,12.654 73.247,12.654 	"/>
	<polygon fill="#4FBA6F" points="81.525,10.785 86.796,10.785 88.188,6.428 83.056,6.428 	"/>
</g>
<g id="Yellow_Lights">
	<polygon fill="#F0C419" points="247.482,41.918 244.928,37.561 238.773,37.561 241.172,41.918 	"/>
	<polygon fill="#F0C419" points="243.843,35.692 241.333,31.334 235.387,31.334 237.752,35.692 	"/>
	<polygon fill="#F0C419" points="182.906,35.691 181.876,31.334 175.933,31.334 176.813,35.691 	"/>
	<polygon fill="#F0C419" points="274.519,41.918 271.32,37.561 265.162,37.561 268.211,41.918 	"/>
	<polygon fill="#F0C419" points="198.244,29.465 196.812,25.108 191.075,25.108 192.364,29.465 	"/>
	<polygon fill="#F0C419" points="189.841,29.465 188.619,25.108 182.88,25.108 183.958,29.465 	"/>
	<polygon fill="#F0C419" points="215.051,29.465 213.204,25.106 207.468,25.106 209.17,29.465 	"/>
	<polygon fill="#F0C419" points="139.496,12.654 134.166,12.654 134.009,17.014 139.48,17.014 	"/>
	<path fill="#F0C419" d="M139.524,1.933c-1.659-0.086-3.32-0.169-4.983-0.25l-0.096,2.878h5.074L139.524,1.933z"/>
	<polygon fill="#F0C419" points="132.182,6.43 127.049,6.43 126.704,10.788 131.973,10.788 	"/>
	<polygon fill="#F0C419" points="125.133,29.465 131.015,29.465 131.248,25.108 125.511,25.108 	"/>
	<polygon fill="#F0C419" points="147.558,23.238 147.375,18.881 141.844,18.881 141.886,23.238 	"/>
	<path fill="#F0C419" d="M170.689,4.559h5.073l-0.09-0.409c-1.697-0.12-3.408-0.238-5.128-0.354L170.689,4.559z"/>
	<polygon fill="#F0C419" points="149.048,6.43 149.293,10.788 154.562,10.788 154.181,6.43 	"/>
	<path fill="#F0C419" d="M163.44,4.561h5.075l-0.161-0.914c-1.688-0.113-3.388-0.225-5.094-0.334L163.44,4.561z"/>
	<polygon fill="#F0C419" points="215.646,12.654 210.315,12.654 212.167,17.014 217.639,17.014 	"/>
	<polygon fill="#F0C419" points="223.263,12.654 217.933,12.654 219.984,17.014 225.453,17.014 	"/>
	<path fill="#F0C419" d="M237.39,10.788l-0.924-1.577c-1.76-0.168-3.598-0.342-5.51-0.521l1.161,2.098H237.39z"/>
	<path fill="#F0C419" d="M229.858,10.788l-1.25-2.315c-1.762-0.163-3.579-0.329-5.45-0.498l1.43,2.813H229.858z"/>
	<polygon fill="#F0C419" points="231.857,29.465 229.596,25.108 223.858,25.108 225.977,29.465 	"/>
	<polygon fill="#F0C419" points="163.774,23.238 163.181,18.881 157.648,18.881 158.098,23.238 	"/>
	<polygon fill="#F0C419" points="178.562,17.014 177.573,12.654 172.242,12.654 173.09,17.014 	"/>
	<polygon fill="#F0C419" points="195.087,12.654 196.539,17.014 202.009,17.014 200.417,12.654 	"/>
	<polygon fill="#F0C419" points="187.472,12.654 188.721,17.014 194.193,17.014 192.802,12.654 	"/>
	<polygon fill="#F0C419" points="261.257,35.692 258.322,31.334 252.374,31.334 255.161,35.692 	"/>
	<polygon fill="#F0C419" points="252.954,23.242 250.112,18.883 244.581,18.883 247.279,23.242 	"/>
	<polygon fill="#F0C419" points="264.836,25.108 267.996,29.467 273.88,29.467 270.574,25.108 	"/>
	<polygon fill="#F0C419" points="124.267,12.654 118.936,12.654 118.377,17.014 123.849,17.014 	"/>
	<path fill="#F0C419" d="M105.45,4.561h5.075l0.687-3.825c-1.645-0.053-3.286-0.102-4.923-0.148L105.45,4.561z"/>
	<path fill="#F0C419" d="M82.5,31.334l-0.396,1.193c1.991-0.011,3.987-0.015,5.989-0.012l0.352-1.182H82.5z"/>
	<path fill="#F0C419" d="M96.938,31.334h-5.944l-0.337,1.189c1.987,0.009,3.979,0.023,5.974,0.045L96.938,31.334z"/>
	<polygon fill="#F0C419" points="107.861,18.882 102.329,18.882 101.35,23.238 107.023,23.238 	"/>
	<polygon fill="#F0C419" points="106.661,25.108 100.923,25.108 99.921,29.465 105.805,29.465 	"/>
	<path fill="#F0C419" d="M61.96,4.559h5.074l1.923-4.311C67.281,0.271,65.62,0.3,63.976,0.336L61.96,4.559z"/>
	<path fill="#F0C419" d="M275.902,43.789h-6.376l1.163,1.637c2.646,0.331,5.024,0.634,7.107,0.904L275.902,43.789z"/>
	<path fill="#F0C419" d="M139.407,31.334h-5.945l-0.091,2.25c2.01,0.087,4.017,0.178,6.02,0.274L139.407,31.334z"/>
	<path fill="#F0C419" d="M6.792,37.559H1.256L0.42,38.627C2.506,38.251,4.63,37.895,6.792,37.559z"/>
	<polygon fill="#F0C419" points="20.278,23.238 25.953,23.238 28.835,18.881 23.304,18.881 	"/>
	<polygon fill="#F0C419" points="40.22,17.014 45.69,17.014 48.117,12.654 42.787,12.654 	"/>
	<polygon fill="#F0C419" points="51.75,25.106 49.5,29.465 55.382,29.465 57.488,25.106 	"/>
	<polygon fill="#F0C419" points="102.853,6.43 97.72,6.43 96.583,10.788 101.854,10.788 	"/>
	<polygon fill="#F0C419" points="24.706,25.106 18.97,25.106 15.885,29.465 21.768,29.465 	"/>
	<polygon fill="#F0C419" points="73.878,25.108 68.141,25.108 66.308,29.465 72.189,29.465 	"/>
	<polygon fill="#F0C419" points="52.543,18.881 47.011,18.881 44.599,23.238 50.274,23.238 	"/>
	<path fill="#F0C419" d="M35.744,34.286l1.74-2.952h-5.945l-2.176,3.49C31.468,34.632,33.595,34.452,35.744,34.286z"/>
	<polygon fill="#F0C419" points="28.819,10.785 34.089,10.785 36.863,6.428 31.73,6.428 	"/>
	<polygon fill="#F0C419" points="16.773,17.012 22.244,17.012 25.274,12.652 19.944,12.652 	"/>
	<polygon fill="#F0C419" points="51.407,10.785 56.678,10.785 58.86,6.428 53.727,6.428 	"/>
	<polygon fill="#F0C419" points="63.667,17.014 69.138,17.014 70.962,12.654 65.631,12.654 	"/>
	<polygon fill="#F0C419" points="84.154,18.881 78.623,18.881 77.028,23.238 82.702,23.238 	"/>
	<polygon fill="#F0C419" points="73.995,10.788 79.265,10.788 80.856,6.43 75.724,6.43 	"/>
</g>
<g id="Blue_Lights" display="none">
	<polygon display="inline" fill="#3B97D3" points="249.826,31.334 243.884,31.334 246.455,35.692 252.551,35.692 	"/>
	<path display="inline" fill="#3B97D3" d="M247.179,10.788h5.194c-1.645-0.169-3.501-0.358-5.559-0.564L247.179,10.788z"/>
	<polygon display="inline" fill="#3B97D3" points="259.064,17.014 264.536,17.014 261.338,12.657 256.01,12.657 	"/>
	<polygon display="inline" fill="#3B97D3" points="206.648,29.466 205.008,25.108 199.271,25.108 200.767,29.466 	"/>
	<polygon display="inline" fill="#3B97D3" points="139.516,6.43 134.383,6.43 134.232,10.788 139.503,10.788 	"/>
	<polygon display="inline" fill="#3B97D3" points="131.57,18.882 126.038,18.882 125.67,23.238 131.345,23.238 	"/>
	<path display="inline" fill="#3B97D3" d="M177.937,4.561h3.47c-1.171-0.085-2.346-0.17-3.529-0.255L177.937,4.561z"/>
	<polygon display="inline" fill="#3B97D3" points="155.668,23.238 155.278,18.881 149.747,18.881 149.991,23.238 	"/>
	<path display="inline" fill="#3B97D3" d="M148.945,4.559h5.074l-0.159-1.829c-1.673-0.1-3.351-0.197-5.033-0.293L148.945,4.559z"/>
	<polygon display="inline" fill="#3B97D3" points="205.065,18.881 206.74,23.238 212.416,23.238 210.595,18.881 	"/>
	<polygon display="inline" fill="#3B97D3" points="228.631,23.238 226.4,18.882 220.87,18.882 222.958,23.238 	"/>
	<polygon display="inline" fill="#3B97D3" points="225.548,12.654 227.801,17.014 233.271,17.014 230.877,12.654 	"/>
	<polygon display="inline" fill="#3B97D3" points="156.381,6.43 156.819,10.788 162.093,10.788 161.513,6.43 	"/>
	<polygon display="inline" fill="#3B97D3" points="173.036,29.465 172.225,25.108 166.487,25.108 167.152,29.465 	"/>
	<polygon display="inline" fill="#3B97D3" points="244.847,23.238 242.211,18.882 236.676,18.882 239.172,23.238 	"/>
	<path display="inline" fill="#3B97D3" d="M209.529,10.788h5.27l-1.664-3.697c-1.748-0.151-3.528-0.303-5.342-0.455L209.529,10.788z
		"/>
	<polygon display="inline" fill="#3B97D3" points="193.043,6.43 194.472,10.788 199.743,10.788 198.175,6.43 	"/>
	<polygon display="inline" fill="#3B97D3" points="265.475,29.466 262.378,25.108 256.638,25.108 259.593,29.466 	"/>
	<path display="inline" fill="#3B97D3" d="M119.948,4.561h5.074l0.299-3.297c-1.65-0.07-3.299-0.137-4.947-0.202L119.948,4.561z"/>
	<polygon display="inline" fill="#3B97D3" points="278.667,35.692 275.308,31.334 269.362,31.334 272.574,35.692 	"/>
	<polygon display="inline" fill="#3B97D3" points="179.855,12.654 180.905,17.014 186.376,17.014 185.185,12.654 	"/>
	<polygon display="inline" fill="#3B97D3" points="117.518,6.43 112.384,6.43 111.643,10.788 116.915,10.788 	"/>
	<path display="inline" fill="#3B97D3" d="M83.707,4.559h5.072l1.348-4.304c-1.649-0.021-3.291-0.038-4.922-0.05L83.707,4.559z"/>
	<polygon display="inline" fill="#3B97D3" points="94.427,18.881 93.242,23.238 98.916,23.238 99.958,18.881 	"/>
	<polygon display="inline" fill="#3B97D3" points="115.765,18.881 110.232,18.881 109.456,23.238 115.131,23.238 	"/>
	<path display="inline" fill="#3B97D3" d="M209.742,37.561h-6.157l0.267,0.755c2.162,0.191,4.299,0.384,6.407,0.578L209.742,37.561z
		"/>
	<path display="inline" fill="#3B97D3" d="M147.899,31.331h-5.943l0.022,2.653c2.021,0.101,4.037,0.205,6.046,0.314L147.899,31.331z
		"/>
	<path display="inline" fill="#3B97D3" d="M229.977,37.561l1.718,3.427c2.269,0.235,4.486,0.468,6.65,0.699l-2.212-4.126H229.977z"
		/>
	<path display="inline" fill="#3B97D3" d="M266.798,43.789h-6.375l0.277,0.42c2.472,0.294,4.799,0.576,6.976,0.844L266.798,43.789z"
		/>
	<path display="inline" fill="#3B97D3" d="M200.944,37.561h-5.871c2.035,0.17,4.05,0.342,6.046,0.516L200.944,37.561z"/>
	<path display="inline" fill="#3B97D3" d="M25.72,4.558h5.073l1.65-2.468c-1.858,0.188-3.667,0.39-5.422,0.609L25.72,4.558z"/>
	<path display="inline" fill="#3B97D3" d="M47.463,4.559h5.074l2.111-3.944c-1.715,0.066-3.41,0.14-5.079,0.223L47.463,4.559z"/>
	<path display="inline" fill="#3B97D3" d="M130.915,31.334h-5.946l-0.17,1.908c2.001,0.073,4.001,0.151,5.998,0.233L130.915,31.334z
		"/>
	<path display="inline" fill="#3B97D3" d="M105.433,31.334h-5.945l-0.296,1.263c1.987,0.026,3.978,0.059,5.969,0.096L105.433,31.334
		z"/>
	<path display="inline" fill="#3B97D3" d="M28.991,31.331h-5.945l-2.928,4.359h0.725c1.897-0.213,3.814-0.415,5.753-0.604
		L28.991,31.331z"/>
	<polygon display="inline" fill="#3B97D3" points="32.404,17.012 37.875,17.012 40.502,12.654 35.173,12.654 	"/>
	<path display="inline" fill="#3B97D3" d="M45.979,31.331h-5.945l-1.582,2.753c2.069-0.148,4.157-0.285,6.261-0.411L45.979,31.331z"
		/>
	<polygon display="inline" fill="#3B97D3" points="65.684,25.106 59.946,25.106 57.904,29.465 63.785,29.465 	"/>
	<polygon display="inline" fill="#3B97D3" points="55.732,12.654 50.402,12.654 48.037,17.012 53.507,17.012 	"/>
	<polygon display="inline" fill="#3B97D3" points="12.172,23.237 17.846,23.237 20.934,18.881 15.401,18.881 	"/>
	<polygon display="inline" fill="#3B97D3" points="82.074,25.106 76.338,25.106 74.711,29.465 80.593,29.465 	"/>
	<polygon display="inline" fill="#3B97D3" points="66.465,10.788 71.736,10.788 73.523,6.43 68.391,6.43 	"/>
</g>
<g id="Layer_7">
</g>
</svg>
